<svg width="100" height="86" viewBox="0 0 100 86" fill="none" xmlns="http://www.w3.org/2000/svg">
<g clip-path="url(#clip0_11067_35271)">
<path d="M51.2957 99.77C33.1068 99.77 18.3619 85.025 18.3619 66.8362C18.3619 48.6473 33.1068 33.9023 51.2957 33.9023C69.4845 33.9023 84.2295 48.6473 84.2295 66.8362C84.2295 85.025 69.4845 99.77 51.2957 99.77Z" fill="#9E70FF"/>
<path d="M33.9872 34.0407C33.1941 27.9915 36.71 22.5424 41.8404 21.8697C46.9707 21.197 51.7726 25.5555 52.5658 31.6047C53.359 37.6538 49.843 43.1029 44.7127 43.7756C39.5823 44.4483 34.7804 40.0898 33.9872 34.0407Z" fill="white"/>
<path d="M35.5866 31.9377C35.1102 28.3046 37.2224 25.0319 40.3042 24.6278C43.386 24.2237 46.2705 26.8413 46.7468 30.4744C47.2232 34.1075 45.1111 37.3803 42.0293 37.7844C38.9474 38.1885 36.063 35.5708 35.5866 31.9377Z" fill="black"/>
<path d="M50.0229 34.0397C49.2297 27.9906 52.7457 22.5414 57.876 21.8687C63.0063 21.1961 67.8083 25.5545 68.6014 31.6037C69.3946 37.6528 65.8786 43.102 60.7483 43.7746C55.618 44.4473 50.8161 40.0889 50.0229 34.0397Z" fill="white"/>
<path d="M51.6227 31.9387C51.1464 28.3056 53.2585 25.0328 56.3403 24.6287C59.4221 24.2247 62.3066 26.8423 62.783 30.4754C63.2593 34.1085 61.1472 37.3813 58.0654 37.7854C54.9836 38.1895 52.0991 35.5718 51.6227 31.9387Z" fill="black"/>
<path d="M29.813 42.3096C29.8295 42.0731 30.0028 41.8778 30.2339 41.8338C31.7165 41.5477 37.2591 40.783 44.3723 43.4979H47.7529C53.9419 41.4789 58.9069 41.8227 61.3247 42.2106L77.0476 36.3434C77.5207 36.1674 78.0488 36.2774 78.4091 36.6267L80.0733 38.2304C80.5932 38.731 80.6097 39.5589 80.1091 40.0788C79.6084 40.5987 78.7805 40.6152 78.2606 40.1146L77.1878 39.0831L61.3605 44.9888C61.4347 45.99 61.377 48.0943 59.8834 50.0143C57.8341 52.6494 54.7534 52.7732 54.3435 52.7814C53.8044 52.8089 51.2352 52.8777 49.1502 50.966C47.3458 49.3128 46.9965 47.1948 46.9002 46.4219C46.8507 46.012 46.8314 45.6324 46.8314 45.2886H44.8757C44.7877 46.7327 44.3146 48.848 42.4854 50.3718C40.4939 52.0305 38.1613 51.9342 37.5259 51.8847C36.9785 51.8407 34.1893 51.5546 32.4124 49.068C30.7565 46.7492 31.2021 44.2268 31.2874 43.7812C31.2874 43.7812 31.2791 43.0798 30.2614 42.9203C29.9835 42.8763 29.78 42.6397 29.802 42.3591V42.3124L29.813 42.3096Z" fill="black"/>
<path opacity="0.3" d="M58.8489 43.4321C58.1777 43.366 56.6428 43.2615 55.0667 43.5008C54.5001 43.5861 54.3213 44.3123 54.7916 44.6396C55.262 44.9669 55.7406 45.3768 56.2055 45.9187C57.0582 46.9172 57.4956 47.9707 57.7239 48.7986C57.8669 49.3185 58.5463 49.4395 58.8516 48.9939C59.5916 47.9184 60.3728 46.07 59.3523 43.7896C59.2615 43.5888 59.0689 43.4568 58.8489 43.4348V43.4321Z" fill="white"/>
<path opacity="0.3" d="M42.92 44.5265C42.4881 44.3807 41.4951 44.0781 40.4223 43.9956C40.0373 43.9653 39.8089 44.4164 40.0675 44.7025C40.3261 44.9886 40.5791 45.3324 40.8019 45.7588C41.209 46.5455 41.3383 47.3046 41.3603 47.8823C41.3768 48.2454 41.8032 48.4297 42.0728 48.1821C42.7247 47.588 43.5196 46.4904 43.195 44.8345C43.1675 44.6888 43.0575 44.5732 42.9172 44.5237L42.92 44.5265Z" fill="white"/>
</g>
<defs>
<clipPath id="clip0_11067_35271">
<rect width="100" height="86" fill="white"/>
</clipPath>
</defs>
</svg>
